<svg width="1000"  style="background:#F0EEF0"
     xmlns="http://www.w3.org/2000/svg" version="1.1">
     <defs>
        <!-- 热气球轨迹 -->
        <path id="hMotion2" d="M65,21c65.84,23.55,132.84-.61,145-5,13.18-4.76,9.66-5.11,21-9,50.19-17.22,83,2.13,139,10,77.63,10.91,75.7-17.67,151-4,29.27,5.31,52.53,13.8,86,6,19.78-4.61,28.18-11.43,51-13,26.76-1.84,60.2,4.45,62,16,1.64,10.52-23.15,24.44-43,31-43.63,14.42-75.58-2.68-119-11-66.39-12.72-68.29,12.59-164,12-104.21-.65-97.64-30.63-171-22C152.51,40.29,122,70.85,58,56,38.26,51.42-.58,38.81,0,26c.3-6.57,10.89-11.1,13-12C31.11,6.26,49.65,15.51,65,21Z"/>
     </defs>
        <g transform="translate(30,100)">
            <g transform="scale(1)">
                <path d="M101.27,321.33c1.71,2.56,16.66,76.06,16.66,76.06Z" style="fill:#432918"/>
                <path d="M115.8,398.24l4.27-.85c-4.7-22.22-15.38-74.35-17.09-76.91l-3.42,2.14C100.84,325.6,109.82,369.61,115.8,398.24Z"/><path d="M158.1,397.39s15-73.49,16.66-76.06Z" style="fill:#432918"/>
                <path d="M160.24,398.24c6-28.63,15-72.64,16.66-75.63l-3.85-2.14c-1.71,2.56-12.39,54.69-17.09,76.91Z"/><path d="M138,0C59,0,0,64.09,0,132.46c0,98.71,83.75,185.88,104.26,206,8.55-10.26,19.66-15,33.33-15s24.78,4.7,33.33,15c20.94-20.08,104.26-107.25,104.26-206C276,64.09,217.07,0,138,0Z" style="fill:#ea2313"/>
                <path d="M126.05,362.78a4.74,4.74,0,0,0,4.7,4.7h14.1a4.74,4.74,0,0,0,4.7-4.7v-14.1h-23.5Z" style="fill:#dadada"/>
                <path d="M138,346.54c5.56,0,7.27-6.41,4.27-9-2.56-2.56-3.42-9.83-3.42-9.83a8.06,8.06,0,0,0-2.56,8.12c1.71,5.13-.43,5.13-.43,5.13-1.28,0-1.28-4.27-1.28-4.27-.85,2.56-2.56,3.85-2.14,6C132.89,346.54,136.31,346.54,138,346.54Z" style="fill:#f39200"/>
                <path d="M174.77,425.59a2,2,0,0,0-2.14-1.71H103a1.71,1.71,0,0,0,0,3.42h70.08A1.84,1.84,0,0,0,174.77,425.59Z" style="fill:#432918"/>
                <path d="M148.7,388.84H109a4.74,4.74,0,0,0-4.7,4.7v30.34h68.37V393.11a4.74,4.74,0,0,0-4.7-4.7H148.7Z" style="fill:#8c6244"/>
                <path d="M108.11,409.35a4.52,4.52,0,0,0,.85,6l12.39,8.55h15l-22.65-15.81A3.8,3.8,0,0,0,108.11,409.35Z" style="fill:#cca183"/>
                <path d="M109,400a2.59,2.59,0,0,0,.43,3.42l29.48,20.51h9L112.38,399.1C111.53,398.24,109.82,398.67,109,400Z" style="fill:#cca183"/>
                <path d="M170.07,408.07a3.55,3.55,0,0,0-.85-5.13l-20.51-14.1H136.31l28.63,20.08A4.55,4.55,0,0,0,170.07,408.07Z" style="fill:#cca183"/>
                <path d="M160.24,391.83A1.25,1.25,0,0,0,159,394l14.1,9.83v-3.42Z" style="fill:#cca183"/><path d="M138.45,0c89.3,54.27,14.1,305.52,6,323.89h0a37.87,37.87,0,0,1,12,3h0C281.59,97.85,197.84,17.09,138.45,0Z" style="fill:#fff"/>
                <path d="M138,0C78.62,17.09-5.13,97.85,120.07,326.88h0a37.88,37.88,0,0,1,12-3h0C123.92,305.52,48.71,54.27,138,0Z" style="fill:#fff"/>
<!--                 <animateMotion dur="60s" repeatCount="indefinite" keyTimes="0;0.25;0.4;0.88;1" keyPoints="0;0.4;0.5;0.9;1" calcMode="linear" rotate="0">
                    <mpath xmlns:xlink="http://www.w3.org/1999/xlink" xlink:href="#hMotion2" /> 
                </animateMotion> -->
   <!--              <animateTransform attributeType="XML" attributeName="transform" begin="0" dur="60s" type="scale" values="0.1;0.1;0.06;0.06;0.1" repeatCount="indefinite"/>   -->
            </g>
        </g>



</svg>