<?xml version="1.0" standalone="no"?>
<!DOCTYPE svg PUBLIC "-//W3C//DTD SVG 1.1//EN"
"http://www.w3.org/Graphics/SVG/1.1/DTD/svg11.dtd">

<svg xmlns="http://www.w3.org/2000/svg" version="1.1" xmlns:xlink="http://www.w3.org/1999/xlink">

	<g id="ChinaFlag">
		<rect id="redRect" x="20" y="0" width="500" height="300" fill="red"/>
			
	  	<g  transform="translate(50,40)scale(0.2,0.2)">
		    <polyline points="0,170 484,170 88,440 240,4 391,439 0,170" fill="yellow">
		    </polyline>
		</g>
	  	<g  transform="translate(200,20)rotate(20)scale(0.05,0.05)">
		    <polyline points="0,170 484,170 88,440 240,4 391,439 0,170" fill="yellow"></polyline>

		</g>
		<g  transform="translate(220,55)rotate(25)scale(0.05,0.05)">
		    <polyline points="0,170 484,170 88,440 240,4 391,439 0,170" fill="yellow"></polyline>

		</g>
	  	<g  transform="translate(220,90)rotate(30)scale(0.05,0.05)">
		    <polyline points="0,170 484,170 88,440 240,4 391,439 0,170" fill="yellow"></polyline>

		</g>
	  	<g  transform="translate(200,120)rotate(35)scale(0.05,0.05)">
		    <polyline points="0,170 484,170 88,440 240,4 391,439 0,170" fill="yellow"></polyline>

		</g>

        <animateTransform attributeType="XML" attributeName="transform" begin="-1s" dur="15s" type="translate" from="0, 1000" to="0, 0" repeatCount="100" fill="freeze" />
	</g>

	<rect id="flagpole" x="20" y="0" width="10" height="1000" fill="gray"/>
</svg>




